<svg width="400" height="300" xmlns="http://www.w3.org/2000/svg">
  <!-- Background (Dark) -->
  <rect width="400" height="300" fill="#1e293b"/>

  <!-- Header -->
  <rect x="20" y="20" width="360" height="40" fill="#334155" rx="8"/>
  <rect x="35" y="32" width="180" height="7" fill="#818cf8" rx="3"/>
  <rect x="35" y="45" width="120" height="5" fill="#64748b" rx="2"/>

  <!-- Question Section -->
  <rect x="20" y="80" width="360" height="120" fill="#0f172a" stroke="#475569" stroke-width="1" rx="8"/>
  <rect x="35" y="95" width="220" height="9" fill="#f1f5f9" rx="4"/>
  <rect x="35" y="112" width="300" height="5" fill="#64748b" rx="2"/>

  <!-- Answer Options (Dark Theme) -->
  <circle cx="40" cy="137" r="6" fill="#1e293b" stroke="#818cf8" stroke-width="2"/>
  <rect x="56" y="132" width="140" height="7" fill="#cbd5e1" rx="3"/>

  <circle cx="40" cy="157" r="6" fill="#1e293b" stroke="#818cf8" stroke-width="2"/>
  <rect x="56" y="152" width="160" height="7" fill="#cbd5e1" rx="3"/>

  <circle cx="40" cy="177" r="6" fill="#1e293b" stroke="#818cf8" stroke-width="2"/>
  <rect x="56" y="172" width="150" height="7" fill="#cbd5e1" rx="3"/>

  <!-- Button (Dark Mode Style) -->
  <rect x="20" y="220" width="130" height="38" fill="#818cf8" rx="8"/>
  <rect x="55" y="233" width="60" height="8" fill="#0f172a" rx="4"/>

  <!-- Footer -->
  <rect x="20" y="270" width="100" height="5" fill="#334155" rx="2"/>

  <!-- Label -->
  <text x="200" y="290" font-family="Arial, sans-serif" font-size="12" fill="#94a3b8" text-anchor="middle">Dark Mode Template</text>
</svg>
