<svg width="400" height="300" xmlns="http://www.w3.org/2000/svg">
  <!-- Background -->
  <rect width="400" height="300" fill="#f8f9fa"/>

  <!-- Header -->
  <rect x="30" y="30" width="340" height="35" fill="#ffffff" rx="12"/>
  <rect x="45" y="42" width="180" height="6" fill="#6366f1" rx="3"/>
  <rect x="45" y="54" width="120" height="4" fill="#cbd5e1" rx="2"/>

  <!-- Question Section -->
  <rect x="30" y="85" width="340" height="130" fill="#ffffff" rx="12"/>
  <rect x="45" y="100" width="220" height="8" fill="#1e293b" rx="4"/>
  <rect x="45" y="118" width="290" height="5" fill="#cbd5e1" rx="2"/>
  <rect x="45" y="128" width="250" height="5" fill="#cbd5e1" rx="2"/>

  <!-- Answer Options (Modern Rounded Pills) -->
  <rect x="45" y="150" width="290" height="32" fill="#f1f5f9" rx="16"/>
  <rect x="60" y="160" width="100" height="8" fill="#64748b" rx="4"/>

  <rect x="45" y="190" width="290" height="32" fill="#f1f5f9" rx="16"/>
  <rect x="60" y="200" width="120" height="8" fill="#64748b" rx="4"/>

  <!-- Button (Modern Style) -->
  <rect x="30" y="240" width="140" height="40" fill="#6366f1" rx="12"/>
  <rect x="70" y="254" width="60" height="8" fill="#ffffff" rx="4"/>

  <!-- Label -->
  <text x="200" y="290" font-family="Arial, sans-serif" font-size="12" fill="#999999" text-anchor="middle">Modern Template</text>
</svg>
